<?xml version="1.0" encoding="UTF-8" standalone="no"?>
<!-- Created with Inkscape (http://www.inkscape.org/) -->

<svg
   version="1.0"
   id="svg2"
   sodipodi:version="0.32"
   inkscape:version="1.1 (c68e22c387, 2021-05-23)"
   sodipodi:docname="logo.svg"
   inkscape:output_extension="org.inkscape.output.svg.inkscape"
   width="512.9024"
   height="340"
   xmlns:inkscape="http://www.inkscape.org/namespaces/inkscape"
   xmlns:sodipodi="http://sodipodi.sourceforge.net/DTD/sodipodi-0.dtd"
   xmlns="http://www.w3.org/2000/svg"
   xmlns:svg="http://www.w3.org/2000/svg"
   xmlns:rdf="http://www.w3.org/1999/02/22-rdf-syntax-ns#"
   xmlns:cc="http://creativecommons.org/ns#"
   xmlns:dc="http://purl.org/dc/elements/1.1/">
  <path
     d="m 179.36433,254.28572 c 21.6969,0 39.28571,19.1878 39.28571,42.85715 0,23.66934 -17.58881,42.85714 -39.28571,42.85714 -21.6969,0 -39.28571,-19.1878 -39.28571,-42.85714 0,-23.66935 17.58881,-42.85715 39.28571,-42.85715 z"
     id="path2387"
     style="fill:#ffc5d9;fill-opacity:1;fill-rule:evenodd;stroke:none;stroke-width:5.798;stroke-linecap:round;stroke-linejoin:round;stroke-miterlimit:4;stroke-dasharray:none;stroke-dashoffset:0;stroke-opacity:1" />
  <path
     d="m 180.07861,202.85714 c 21.6969,0 39.28571,19.1878 39.28571,42.85715 0,23.66934 -17.58881,42.85714 -39.28571,42.85714 -21.6969,0 -39.28571,-19.1878 -39.28571,-42.85714 0,-23.66935 17.58881,-42.85715 39.28571,-42.85715 z"
     id="path2389"
     style="fill:#ffc5d9;fill-opacity:1;fill-rule:evenodd;stroke:none;stroke-width:5.798;stroke-linecap:round;stroke-linejoin:round;stroke-miterlimit:4;stroke-dasharray:none;stroke-dashoffset:0;stroke-opacity:1" />
  <path
     d="m 181.15004,151.14286 c 21.6969,0 39.28571,19.1878 39.28571,42.85715 0,23.66934 -17.58881,42.85714 -39.28571,42.85714 -21.6969,0 -39.28571,-19.1878 -39.28571,-42.85714 0,-23.66935 17.58881,-42.85715 39.28571,-42.85715 z"
     id="path2391"
     style="fill:#ffc5d9;fill-opacity:1;fill-rule:evenodd;stroke:none;stroke-width:5.798;stroke-linecap:round;stroke-linejoin:round;stroke-miterlimit:4;stroke-dasharray:none;stroke-dashoffset:0;stroke-opacity:1" />
  <path
     d="m 181.86432,99.71428 c 21.6969,0 39.28571,19.1878 39.28571,42.85715 0,23.66934 -17.58881,42.85714 -39.28571,42.85714 -21.6969,0 -39.28571,-19.1878 -39.28571,-42.85714 0,-23.66935 17.58881,-42.85715 39.28571,-42.85715 z"
     id="path2393"
     style="fill:#ffc5d9;fill-opacity:1;fill-rule:evenodd;stroke:none;stroke-width:5.798;stroke-linecap:round;stroke-linejoin:round;stroke-miterlimit:4;stroke-dasharray:none;stroke-dashoffset:0;stroke-opacity:1" />
  <path
     d="m 182.00718,51.42858 c 21.6969,0 39.28571,19.1878 39.28571,42.85715 0,23.66934 -17.58881,42.85714 -39.28571,42.85714 -21.6969,0 -39.28571,-19.1878 -39.28571,-42.85714 0,-23.66935 17.58881,-42.85715 39.28571,-42.85715 z"
     id="path2395"
     style="fill:#ffc5d9;fill-opacity:1;fill-rule:evenodd;stroke:none;stroke-width:5.798;stroke-linecap:round;stroke-linejoin:round;stroke-miterlimit:4;stroke-dasharray:none;stroke-dashoffset:0;stroke-opacity:1" />
  <path
     d="m 182.72146,0 c 21.6969,0 39.28571,19.1878 39.28571,42.85715 0,23.66934 -17.58881,42.85714 -39.28571,42.85714 -21.6969,0 -39.28571,-19.1878 -39.28571,-42.85714 C 143.43575,19.1878 161.02456,0 182.72146,0 Z"
     id="path2397"
     style="fill:#ffc5d9;fill-opacity:1;fill-rule:evenodd;stroke:none;stroke-width:5.798;stroke-linecap:round;stroke-linejoin:round;stroke-miterlimit:4;stroke-dasharray:none;stroke-dashoffset:0;stroke-opacity:1" />
  <path
     d="M 233.0142,293.63584 506.50106,181.23356 512.12829,168.99389 234.92749,50.9356 Z"
     id="path2422"
     style="fill:#ffcb85;fill-opacity:1;fill-rule:evenodd;stroke:#ffcb85;stroke-width:1.15691px;stroke-linecap:butt;stroke-linejoin:miter;stroke-opacity:1"
     sodipodi:nodetypes="ccccc" />
  <path
     style="fill:#ffc5d9;fill-opacity:1;fill-rule:evenodd;stroke:none;stroke-width:0.7;stroke-linecap:round;stroke-linejoin:round;stroke-miterlimit:4;stroke-dasharray:none;stroke-dashoffset:0;stroke-opacity:1"
     d="m 0,170.91451 c 0,81.72642 68.234296,148.0422 152.3125,148.0422 4.66737,0 9.28297,-0.22045 13.84375,-0.62054 V 23.4633 C 161.59547,23.06321 156.97987,22.84276 152.3125,22.84276 68.234296,22.84276 0,89.18808 0,170.91451 Z"
     id="path2407" />
  <metadata
     id="metadata16">
    <rdf:RDF>
      <cc:Work
         rdf:about="">
        <dc:format>image/svg+xml</dc:format>
        <dc:type
           rdf:resource="http://purl.org/dc/dcmitype/StillImage" />
      </cc:Work>
    </rdf:RDF>
  </metadata>
  <sodipodi:namedview
     inkscape:pageshadow="2"
     inkscape:pageopacity="0.0"
     guidetolerance="10.0"
     gridtolerance="10.0"
     objecttolerance="10.0"
     borderopacity="1.0"
     bordercolor="#666666"
     pagecolor="#ffffff"
     id="base"
     showgrid="false"
     inkscape:zoom="0.46942014"
     inkscape:window-x="-9"
     inkscape:window-y="1121"
     inkscape:current-layer="svg2"
     showborder="false"
     inkscape:showpageshadow="false"
     inkscape:cx="512.33422"
     inkscape:cy="199.18191"
     inkscape:window-width="1920"
     inkscape:window-height="1001"
     inkscape:pagecheckerboard="1"
     inkscape:window-maximized="1"
     fit-margin-top="0"
     fit-margin-left="0"
     fit-margin-right="0"
     fit-margin-bottom="0" />
  <defs
     id="defs4">
    <inkscape:perspective
       sodipodi:type="inkscape:persp3d"
       inkscape:vp_x="0 : 286.18109 : 1"
       inkscape:vp_y="0 : 1000 : 0"
       inkscape:vp_z="744.09448 : 286.18109 : 1"
       inkscape:persp3d-origin="372.04724 : 110.78739 : 1"
       id="perspective18" />
  </defs>
  <text
     xml:space="preserve"
     style="font-style:normal;font-weight:normal;font-size:218.907px;line-height:1.25;font-family:sans-serif;fill:#ffffff;fill-opacity:1;stroke:none;stroke-width:1.14015"
     x="74.720238"
     y="256.45047"
     id="text2873"
     transform="scale(1.07105,0.93366323)"><tspan
       sodipodi:role="line"
       id="tspan2871"
       x="74.720238"
       y="256.45047"
       style="font-style:normal;font-variant:normal;font-weight:normal;font-stretch:normal;font-size:218.907px;font-family:Playbill;-inkscape-font-specification:Playbill;fill:#ffffff;stroke-width:1.14015">&amp;</tspan></text>
  <text
     xml:space="preserve"
     style="font-style:normal;font-weight:normal;font-size:74.6667px;line-height:1.25;font-family:sans-serif;letter-spacing:3px;fill:#000000;fill-opacity:1;stroke:none"
     x="251.44731"
     y="199.09598"
     id="text8559"><tspan
       sodipodi:role="line"
       id="tspan8557"
       x="251.44731"
       y="199.09598"
       style="font-style:normal;font-variant:normal;font-weight:normal;font-stretch:normal;font-size:74.6667px;font-family:'Cooper Black';-inkscape-font-specification:'Cooper Black, ';fill:#ffffff">chill</tspan></text>
</svg>
